<mxfile host="app.diagrams.net" modified="2023-01-09T07:20:38.584Z" agent="5.0 (X11; Linux x86_64) AppleWebKit/537.36 (KHTML, like Gecko) Chrome/109.0.0.0 Safari/537.36 Edg/109.0.1518.26" version="20.8.1" etag="9S4s3tD4lpIN1eyOnk-e" type="github">
  <diagram id="HrEwuO9d4wF9gGbz7vrr" name="第 1 页">
    <mxGraphModel dx="3447" dy="1590" grid="0" gridSize="10" guides="1" tooltips="1" connect="1" arrows="1" fold="1" page="1" pageScale="1" pageWidth="827" pageHeight="1169" math="0" shadow="0">
      <root>
        <mxCell id="0" />
        <mxCell id="1" parent="0" />
        <mxCell id="K5DUyNLz1QTkelRy9-_S-33" value="" style="shape=parallelogram;perimeter=parallelogramPerimeter;whiteSpace=wrap;html=1;fixedSize=1;strokeWidth=4;rotation=337;size=17.120000000000005;flipH=1;" vertex="1" parent="1">
          <mxGeometry x="150" y="765" width="80.12" height="20" as="geometry" />
        </mxCell>
        <mxCell id="K5DUyNLz1QTkelRy9-_S-21" value="" style="endArrow=none;html=1;rounded=0;" edge="1" parent="1">
          <mxGeometry width="50" height="50" relative="1" as="geometry">
            <mxPoint x="121" y="756" as="sourcePoint" />
            <mxPoint x="611" y="556" as="targetPoint" />
          </mxGeometry>
        </mxCell>
        <mxCell id="K5DUyNLz1QTkelRy9-_S-25" value="" style="endArrow=none;html=1;rounded=0;" edge="1" parent="1">
          <mxGeometry width="50" height="50" relative="1" as="geometry">
            <mxPoint x="209" y="788" as="sourcePoint" />
            <mxPoint x="699" y="588" as="targetPoint" />
          </mxGeometry>
        </mxCell>
        <mxCell id="K5DUyNLz1QTkelRy9-_S-26" value="" style="endArrow=none;dashed=1;html=1;dashPattern=1 3;strokeWidth=2;rounded=0;" edge="1" parent="1">
          <mxGeometry width="50" height="50" relative="1" as="geometry">
            <mxPoint x="170" y="765" as="sourcePoint" />
            <mxPoint x="640" y="575" as="targetPoint" />
          </mxGeometry>
        </mxCell>
        <mxCell id="K5DUyNLz1QTkelRy9-_S-28" value="" style="curved=1;endArrow=classic;html=1;rounded=0;fillColor=#e1d5e7;strokeColor=#9673a6;endSize=5;strokeWidth=3;" edge="1" parent="1">
          <mxGeometry width="50" height="50" relative="1" as="geometry">
            <mxPoint x="190" y="775" as="sourcePoint" />
            <mxPoint x="560" y="595" as="targetPoint" />
            <Array as="points">
              <mxPoint x="360" y="685" />
              <mxPoint x="400" y="655" />
            </Array>
          </mxGeometry>
        </mxCell>
        <mxCell id="K5DUyNLz1QTkelRy9-_S-29" value="" style="curved=1;endArrow=classic;html=1;rounded=0;fillColor=#d5e8d4;strokeColor=#82b366;strokeWidth=3;" edge="1" parent="1">
          <mxGeometry width="50" height="50" relative="1" as="geometry">
            <mxPoint x="190" y="775" as="sourcePoint" />
            <mxPoint x="450" y="635" as="targetPoint" />
            <Array as="points">
              <mxPoint x="280" y="705" />
            </Array>
          </mxGeometry>
        </mxCell>
        <mxCell id="K5DUyNLz1QTkelRy9-_S-30" value="" style="shape=parallelogram;perimeter=parallelogramPerimeter;whiteSpace=wrap;html=1;fixedSize=1;strokeWidth=4;rotation=337;size=17.120000000000005;flipH=1;fillColor=#f8cecc;strokeColor=#b85450;" vertex="1" parent="1">
          <mxGeometry x="337" y="689" width="80.12" height="20" as="geometry" />
        </mxCell>
      </root>
    </mxGraphModel>
  </diagram>
</mxfile>
